<?xml version="1.0" encoding="utf-8"?>
<!-- Generator: Adobe Illustrator 24.2.0, SVG Export Plug-In . SVG Version: 6.00 Build 0)  -->
<svg version="1.1" id="Layer_1" xmlns="http://www.w3.org/2000/svg" xmlns:xlink="http://www.w3.org/1999/xlink" x="0px" y="0px"
	 viewBox="0 0 398.9 398.9" style="enable-background:new 0 0 398.9 398.9;" xml:space="preserve">
<g transform="translate(0.000000,512.000000) scale(0.100000,-0.100000)">
	<path d="M327,5076c-4-10-7-330-7-713v-694l-54-50c-77-70-100-123-100-229c0-68,5-94,23-132c106-218,396-247,542-55
		c45,61,59,105,59,192c0,86-40,177-102,229c-23,20-45,36-50,36c-4,0-8,252-8,560v560h343c188,0,392-5,452-10c347-33,612-142,777-318
		c52-55,138-170,138-183c0-5-59-9-130-9c-349,0-594-90-813-299c-139-133-232-297-283-500c-36-139-44-242-44-554v-279l-51-45
		c-27-25-62-69-77-97c-23-44-27-63-27-141c0-75,4-97,23-133c35-66,88-119,150-149c48-24,70-28,137-28c101,0,173,32,238,106l43,50
		l130,14c430,48,717,219,936,560c166,257,247,535,248,848c0,82,3,116,11,112c18-11,93-136,121-200c75-174,78-210,78-1055v-725
		l-49-42c-30-26-60-65-78-100c-24-50-28-70-28-143c1-100,21-152,87-218c60-61,118-86,211-90c93-5,144,11,216,69
		c56,43,106,134,117,211c12,92-52,233-130,286l-35,24l-4,776c-4,736-5,782-24,877c-25,120-54,206-101,300c-105,210-261,375-426,451
		c-53,24-59,31-84,88c-74,173-152,293-271,419c-215,227-473,348-859,407c-116,17-206,21-686,27C366,5093,333,5092,327,5076z
		 M2326,3950c60-6,119-13,131-16c36-9,47-89,48-329c0-198-2-216-27-306c-53-191-161-391-284-528c-116-129-297-218-518-256
		c-151-26-156-25-231,50l-65,65v308c0,373,13,461,95,624c78,155,247,299,413,353C2006,3953,2168,3966,2326,3950z"/>
</g>
</svg>
