<svg id="svg8656" version="1.1" width="312" height="312" viewBox="0 0 37.847 40.998" xmlns="http://www.w3.org/2000/svg">
  <defs id="defs8653"></defs>
  <path style="stroke-width:0.37068966" id="use7800" d="M 25.985 8.489 L 25.689 8.489 L 25.689 2.261 C 25.948 2.891 25.985 3.522 25.985 4.041 L 25.985 8.489 Z M 14.197 6.005 C 14.568 6.116 14.976 6.191 15.421 6.228 L 15.421 5.931 C 15.05 5.894 14.642 5.82 14.272 5.709 C 13.79 5.597 13.345 5.486 12.9 5.486 C 12.678 5.486 12.455 5.523 12.27 5.597 L 12.27 5.931 C 12.418 5.857 12.641 5.82 12.9 5.82 C 13.308 5.783 13.753 5.894 14.197 6.005 L 14.197 6.005 Z M 10.602 5.783 C 10.861 5.783 11.084 5.82 11.232 5.894 L 11.232 5.56 C 11.047 5.486 10.824 5.449 10.602 5.449 C 10.157 5.449 9.712 5.56 9.23 5.672 C 8.859 5.783 8.489 5.857 8.081 5.894 L 8.081 6.191 C 8.489 6.153 8.897 6.079 9.304 5.968 C 9.786 5.894 10.194 5.783 10.602 5.783 L 10.602 5.783 Z M 10.602 5.041 C 10.861 5.041 11.084 5.115 11.232 5.153 L 11.232 4.819 C 11.047 4.745 10.824 4.745 10.602 4.708 C 10.157 4.708 9.712 4.819 9.23 4.93 C 8.859 5.041 8.489 5.116 8.081 5.153 L 8.081 5.449 C 8.526 5.412 8.897 5.338 9.304 5.227 C 9.786 5.116 10.194 5.004 10.602 5.041 L 10.602 5.041 Z M 10.602 6.561 C 10.861 6.561 11.084 6.598 11.232 6.672 L 11.232 6.339 C 11.047 6.265 10.824 6.265 10.602 6.228 C 10.157 6.228 9.712 6.339 9.23 6.45 C 8.859 6.561 8.489 6.635 8.081 6.672 L 8.081 6.969 C 8.526 6.932 8.897 6.821 9.304 6.747 C 9.786 6.635 10.194 6.524 10.602 6.561 Z M 10.602 4.263 C 10.861 4.263 11.084 4.337 11.232 4.374 L 11.232 4.041 C 11.047 3.966 10.824 3.929 10.602 3.929 C 10.157 3.929 9.712 4.041 9.23 4.152 C 8.859 4.263 8.489 4.337 8.081 4.374 L 8.081 4.671 C 8.489 4.634 8.897 4.559 9.304 4.448 C 9.786 4.374 10.194 4.263 10.602 4.263 Z M 8.6 26.949 C 4.93 20.907 5.004 15.013 5.004 14.272 L 5.004 0 L 32.806 0 L 32.806 14.272 C 32.806 15.013 32.88 20.907 29.21 26.949 C 25.948 32.435 21.018 34.845 18.905 35.586 C 16.829 34.845 11.899 32.435 8.6 26.949 Z M 16.014 25.837 L 15.272 25.244 L 15.68 24.354 L 14.716 24.54 L 14.309 23.687 L 13.864 24.54 L 12.937 24.354 L 13.345 25.244 L 12.603 25.837 L 13.53 26.059 L 13.53 27.023 L 14.309 26.43 L 15.05 27.023 L 15.05 26.059 L 16.014 25.837 Z M 19.98 31.879 L 20.907 31.434 L 19.98 31.027 L 20.314 30.063 L 19.35 30.434 L 18.942 29.507 L 18.534 30.397 L 17.571 30.026 L 17.941 30.99 L 17.015 31.397 L 17.941 31.842 L 17.571 32.806 L 18.534 32.435 L 18.942 33.362 L 19.35 32.435 L 20.314 32.806 L 19.98 31.879 Z M 17.941 20.833 L 17.2 21.463 L 18.127 21.685 L 18.127 22.649 L 18.868 22.056 L 19.647 22.649 L 19.684 21.685 L 20.61 21.463 L 19.869 20.833 L 20.277 19.943 L 19.313 20.128 L 18.905 19.276 L 18.497 20.128 L 17.534 19.943 L 17.941 20.833 Z M 21.203 26.912 L 21.759 26.319 L 20.944 26.171 L 20.573 25.429 L 20.203 26.171 L 19.387 26.319 L 19.98 26.912 L 19.832 27.728 L 20.573 27.357 L 21.315 27.728 L 21.203 26.912 Z M 23.947 23.984 L 24.391 23.242 L 23.539 23.242 L 23.131 22.501 L 22.723 23.242 L 21.871 23.242 L 22.316 23.984 L 21.871 24.725 L 22.723 24.725 L 23.131 25.466 L 23.539 24.725 L 24.391 24.725 L 23.947 23.984 Z M 30.471 6.116 C 30.248 6.228 30.063 6.413 29.952 6.635 C 29.841 6.821 29.803 7.006 29.803 7.191 C 29.803 7.228 29.803 7.265 29.803 7.34 C 29.915 7.266 30.026 7.191 30.137 7.117 C 30.211 7.043 30.285 6.932 30.359 6.858 C 30.434 6.709 30.471 6.487 30.471 6.302 C 30.471 6.228 30.471 6.153 30.471 6.116 Z M 27.579 10.379 C 27.802 10.491 28.061 10.528 28.321 10.491 C 28.58 10.453 28.766 10.342 28.951 10.157 C 28.728 10.046 28.506 10.009 28.247 10.046 C 27.987 10.083 27.765 10.231 27.579 10.379 Z M 27.579 9.972 C 27.691 9.786 27.765 9.564 27.765 9.341 C 27.765 9.304 27.765 9.304 27.765 9.267 C 27.542 9.378 27.357 9.527 27.209 9.712 C 27.097 9.897 27.023 10.12 27.023 10.342 C 27.023 10.379 27.023 10.379 27.023 10.416 C 27.283 10.342 27.468 10.194 27.579 9.972 L 27.579 9.972 Z M 27.876 9.897 C 27.876 9.897 27.876 9.935 27.876 9.897 C 27.95 9.897 27.987 9.897 28.024 9.86 C 28.172 9.749 28.247 9.601 28.321 9.416 C 28.358 9.304 28.395 9.156 28.395 9.045 C 28.395 8.934 28.358 8.822 28.321 8.711 C 28.172 8.822 28.061 8.934 27.987 9.082 C 27.987 9.416 27.95 9.675 27.876 9.897 L 27.876 9.897 Z M 28.58 9.304 C 28.58 9.341 28.58 9.341 28.58 9.304 C 28.654 9.304 28.691 9.267 28.728 9.23 C 28.84 9.082 28.877 8.934 28.914 8.748 C 28.914 8.711 28.914 8.674 28.914 8.637 C 28.914 8.452 28.84 8.229 28.728 8.044 C 28.617 8.192 28.506 8.341 28.469 8.489 C 28.58 8.822 28.617 9.045 28.58 9.304 L 28.58 9.304 Z M 29.099 8.563 C 29.099 8.6 29.099 8.6 29.099 8.563 C 29.173 8.563 29.21 8.526 29.247 8.452 C 29.285 8.341 29.322 8.229 29.322 8.081 C 29.322 8.044 29.322 7.97 29.322 7.933 C 29.284 7.71 29.173 7.488 28.988 7.303 C 28.914 7.451 28.877 7.636 28.877 7.785 C 28.988 8.081 29.062 8.303 29.099 8.563 L 29.099 8.563 Z M 29.47 7.71 C 29.47 7.747 29.47 7.747 29.47 7.71 C 29.544 7.673 29.544 7.636 29.581 7.562 C 29.581 7.525 29.581 7.525 29.581 7.488 C 29.581 7.34 29.544 7.191 29.507 7.043 C 29.433 6.821 29.247 6.672 29.025 6.524 C 28.988 6.598 28.988 6.71 28.988 6.784 C 28.988 6.858 28.988 6.932 29.025 7.006 C 29.247 7.266 29.396 7.488 29.47 7.71 L 29.47 7.71 Z M 29.618 6.821 C 29.618 6.821 29.618 6.821 29.618 6.821 C 29.655 6.784 29.692 6.71 29.692 6.672 C 29.655 6.487 29.618 6.339 29.507 6.191 C 29.359 6.005 29.173 5.857 28.914 5.783 C 28.914 5.968 28.951 6.153 29.025 6.302 C 29.284 6.413 29.47 6.598 29.618 6.821 L 29.618 6.821 Z M 29.581 5.746 C 29.507 5.56 29.433 5.412 29.284 5.301 C 29.099 5.153 28.914 5.078 28.654 5.041 C 28.691 5.227 28.766 5.375 28.877 5.486 C 29.136 5.56 29.359 5.709 29.544 5.857 C 29.544 5.857 29.581 5.857 29.581 5.857 C 29.581 5.857 29.581 5.82 29.581 5.746 L 29.581 5.746 Z M 29.284 5.041 C 29.284 4.967 29.247 4.93 29.247 4.856 C 29.136 4.708 29.025 4.597 28.877 4.522 C 28.654 4.411 28.432 4.374 28.172 4.411 C 28.284 4.56 28.358 4.708 28.506 4.819 C 28.803 4.819 29.062 4.893 29.284 5.041 C 29.284 5.041 29.284 5.041 29.284 5.041 L 29.284 5.041 Z M 29.136 9.786 C 29.359 9.712 29.544 9.527 29.692 9.304 C 29.433 9.267 29.173 9.267 28.951 9.341 C 28.766 9.416 28.58 9.601 28.432 9.786 C 28.543 9.786 28.691 9.823 28.803 9.86 C 28.914 9.86 29.025 9.86 29.136 9.786 L 29.136 9.786 Z M 29.766 8.934 C 29.952 8.785 30.1 8.563 30.211 8.303 C 29.952 8.303 29.692 8.378 29.507 8.526 C 29.322 8.674 29.173 8.86 29.099 9.082 C 29.21 9.045 29.359 9.045 29.47 9.045 C 29.581 9.045 29.692 9.008 29.766 8.934 L 29.766 8.934 Z M 30.434 7.228 C 30.211 7.303 29.989 7.414 29.803 7.599 C 29.655 7.785 29.581 8.007 29.544 8.266 C 29.655 8.229 29.766 8.192 29.915 8.155 C 30.026 8.081 30.1 8.007 30.174 7.933 C 30.359 7.747 30.434 7.488 30.434 7.228 L 30.434 7.228 Z M 30.211 5.004 C 30.026 5.19 29.878 5.375 29.803 5.635 C 29.766 5.709 29.766 5.82 29.766 5.931 C 29.766 6.079 29.803 6.228 29.84 6.339 C 29.915 6.228 30.026 6.153 30.1 6.079 C 30.174 5.968 30.211 5.857 30.248 5.746 C 30.285 5.672 30.285 5.56 30.285 5.486 C 30.322 5.338 30.285 5.19 30.211 5.004 L 30.211 5.004 Z M 29.47 4.708 C 29.47 4.93 29.544 5.153 29.692 5.375 C 29.729 5.264 29.803 5.153 29.878 5.041 C 29.915 4.93 29.952 4.819 29.952 4.708 C 29.952 4.708 29.952 4.708 29.952 4.708 C 29.952 4.448 29.878 4.226 29.729 4.003 C 29.581 4.226 29.47 4.448 29.47 4.708 C 29.47 4.708 29.47 4.708 29.47 4.708 L 29.47 4.708 Z M 28.877 3.633 C 28.877 3.707 28.877 3.818 28.914 3.892 C 28.951 4.115 29.099 4.3 29.285 4.485 C 29.322 4.374 29.359 4.226 29.396 4.115 C 29.396 4.078 29.396 4.078 29.396 4.041 C 29.396 3.966 29.396 3.892 29.359 3.781 C 29.285 3.559 29.173 3.336 28.951 3.151 C 28.914 3.299 28.877 3.447 28.877 3.633 L 28.877 3.633 Z M 28.766 4.078 C 28.617 3.966 28.469 3.892 28.321 3.818 C 28.098 3.744 27.839 3.781 27.616 3.855 C 27.728 4.004 27.876 4.115 28.024 4.189 C 28.284 4.152 28.58 4.152 28.803 4.226 C 28.803 4.226 28.84 4.226 28.84 4.226 C 28.803 4.189 28.803 4.152 28.766 4.078 L 28.766 4.078 Z M 28.061 2.669 C 28.061 2.854 28.098 3.04 28.172 3.225 C 28.284 3.447 28.469 3.596 28.691 3.707 C 28.691 3.559 28.691 3.447 28.728 3.299 C 28.691 3.188 28.691 3.077 28.617 3.003 C 28.506 2.78 28.321 2.595 28.098 2.484 C 28.061 2.558 28.061 2.595 28.061 2.669 L 28.061 2.669 Z M 27.097 2.743 C 27.171 3.003 27.32 3.225 27.505 3.336 C 27.691 3.447 27.913 3.522 28.135 3.559 C 28.061 3.485 28.024 3.41 27.95 3.299 C 27.913 3.225 27.876 3.114 27.839 3.04 C 27.802 3.003 27.802 3.003 27.765 2.966 C 27.616 2.817 27.394 2.743 27.097 2.743 L 27.097 2.743 Z M 24.206 8.563 C 24.206 8.748 24.354 8.971 24.688 8.971 L 25.318 8.971 C 25.244 9.193 25.17 9.527 25.17 9.86 C 25.17 10.305 25.244 10.676 25.392 10.935 C 24.91 10.861 24.577 10.75 24.243 10.565 L 24.206 10.565 L 24.132 10.75 L 24.169 10.75 C 24.466 10.898 24.725 10.972 25.059 11.084 C 25.059 11.084 25.318 11.121 25.503 11.158 C 25.466 11.195 25.429 11.269 25.429 11.343 C 25.429 11.491 25.541 11.603 25.689 11.603 C 25.837 11.603 25.948 11.491 25.948 11.343 C 25.948 11.269 25.911 11.195 25.874 11.158 C 26.06 11.121 26.282 11.084 26.282 11.084 C 26.616 11.01 26.912 10.935 27.209 10.75 L 27.246 10.75 L 27.172 10.528 L 27.135 10.528 C 26.801 10.713 26.467 10.824 25.985 10.898 C 26.097 10.639 26.208 10.268 26.208 9.823 C 26.208 9.49 26.171 9.156 26.06 8.934 L 26.69 8.934 C 27.023 8.934 27.172 8.748 27.172 8.526 C 27.172 8.378 27.06 8.229 26.875 8.229 C 26.727 8.229 26.579 8.341 26.579 8.526 C 26.579 8.563 26.579 8.6 26.616 8.637 C 26.653 8.674 26.653 8.748 26.542 8.748 L 26.171 8.748 L 26.171 4.041 C 26.171 3.41 26.134 2.632 25.763 1.891 L 25.652 1.668 L 25.541 1.891 C 25.17 2.632 25.133 3.41 25.133 4.041 L 25.133 8.748 L 24.762 8.748 C 24.651 8.748 24.688 8.674 24.688 8.637 C 24.688 8.6 24.725 8.563 24.725 8.526 C 24.725 8.378 24.614 8.229 24.466 8.229 C 24.355 8.266 24.206 8.415 24.206 8.563 L 24.206 8.563 Z M 23.428 9.119 C 23.353 8.971 23.242 8.859 23.094 8.748 C 23.057 8.859 23.02 8.971 23.02 9.082 C 23.02 9.193 23.057 9.341 23.094 9.453 C 23.131 9.638 23.242 9.749 23.353 9.897 C 23.391 9.897 23.465 9.935 23.502 9.935 C 23.502 9.935 23.502 9.897 23.502 9.897 C 23.428 9.675 23.391 9.416 23.428 9.119 L 23.428 9.119 Z M 23.205 4.411 C 22.983 4.374 22.723 4.411 22.501 4.522 C 22.353 4.597 22.204 4.708 22.13 4.856 C 22.13 4.93 22.13 4.967 22.093 5.041 C 22.093 5.041 22.13 5.041 22.13 5.041 C 22.353 4.893 22.612 4.819 22.909 4.819 C 23.02 4.708 23.131 4.559 23.205 4.411 Z M 22.946 8.526 C 22.909 8.378 22.797 8.229 22.686 8.081 C 22.575 8.266 22.501 8.452 22.501 8.674 C 22.501 8.711 22.501 8.748 22.501 8.785 C 22.501 8.971 22.575 9.119 22.686 9.267 C 22.723 9.304 22.797 9.341 22.834 9.378 C 22.834 9.378 22.834 9.341 22.834 9.341 C 22.797 9.045 22.834 8.822 22.946 8.526 L 22.946 8.526 Z M 22.093 8.118 C 22.093 8.229 22.13 8.341 22.167 8.489 C 22.204 8.526 22.241 8.563 22.278 8.6 C 22.278 8.6 22.278 8.563 22.315 8.563 C 22.353 8.303 22.427 8.044 22.575 7.822 C 22.575 7.636 22.501 7.488 22.427 7.34 C 22.241 7.525 22.13 7.747 22.093 7.97 C 22.093 8.007 22.093 8.081 22.093 8.118 L 22.093 8.118 Z M 22.39 7.08 C 22.427 7.006 22.427 6.932 22.427 6.858 C 22.427 6.784 22.39 6.672 22.39 6.598 C 22.167 6.747 22.019 6.895 21.908 7.117 C 21.834 7.266 21.834 7.414 21.834 7.562 C 21.834 7.599 21.834 7.599 21.834 7.636 C 21.871 7.673 21.908 7.747 21.908 7.784 C 21.908 7.784 21.945 7.784 21.945 7.747 C 22.019 7.488 22.167 7.265 22.39 7.08 L 22.39 7.08 Z M 21.834 5.746 C 21.834 5.783 21.834 5.857 21.834 5.894 C 21.834 5.894 21.871 5.894 21.871 5.894 C 22.056 5.709 22.278 5.597 22.538 5.523 C 22.649 5.375 22.723 5.227 22.76 5.078 C 22.501 5.116 22.278 5.19 22.093 5.338 C 21.982 5.412 21.871 5.597 21.834 5.746 L 21.834 5.746 Z M 21.722 6.672 C 21.759 6.71 21.759 6.784 21.759 6.858 C 21.759 6.858 21.759 6.858 21.797 6.858 C 21.945 6.635 22.13 6.45 22.39 6.339 C 22.464 6.191 22.501 6.005 22.501 5.82 C 22.241 5.894 22.056 6.042 21.908 6.228 C 21.797 6.339 21.722 6.487 21.722 6.672 L 21.722 6.672 Z M 21.574 7.599 C 21.426 7.414 21.203 7.303 20.944 7.228 C 20.981 7.488 21.055 7.71 21.203 7.896 C 21.278 7.97 21.389 8.044 21.463 8.118 C 21.574 8.155 21.685 8.192 21.797 8.229 C 21.797 8.007 21.722 7.784 21.574 7.599 Z M 21.203 8.303 C 21.278 8.563 21.426 8.785 21.611 8.934 C 21.685 9.008 21.797 9.045 21.908 9.082 C 22.056 9.082 22.167 9.082 22.278 9.119 C 22.167 8.897 22.056 8.674 21.871 8.563 C 21.722 8.378 21.463 8.303 21.203 8.303 L 21.203 8.303 Z M 21.722 9.341 C 21.871 9.564 22.019 9.712 22.278 9.823 C 22.39 9.86 22.501 9.897 22.612 9.897 C 22.723 9.86 22.872 9.86 22.983 9.823 C 22.834 9.638 22.649 9.453 22.464 9.378 C 22.241 9.267 21.982 9.267 21.722 9.341 L 21.722 9.341 Z M 22.464 10.194 C 22.649 10.379 22.872 10.491 23.131 10.528 C 23.353 10.565 23.613 10.49 23.835 10.416 C 23.65 10.231 23.428 10.12 23.168 10.083 C 22.946 10.009 22.686 10.083 22.464 10.194 Z M 24.391 10.416 C 24.391 10.379 24.391 10.379 24.391 10.342 C 24.391 10.12 24.317 9.897 24.206 9.712 C 24.058 9.527 23.872 9.378 23.65 9.267 C 23.65 9.304 23.65 9.304 23.65 9.341 C 23.65 9.564 23.724 9.786 23.835 9.972 C 23.947 10.194 24.132 10.342 24.391 10.416 Z M 23.428 3.299 C 23.39 3.373 23.316 3.484 23.242 3.559 C 23.465 3.559 23.687 3.485 23.872 3.336 C 24.058 3.188 24.206 2.966 24.317 2.743 C 24.058 2.743 23.798 2.817 23.613 2.966 C 23.576 3.003 23.576 3.003 23.539 3.04 C 23.502 3.114 23.465 3.225 23.428 3.299 L 23.428 3.299 Z M 22.686 3.299 C 22.723 3.447 22.723 3.559 22.723 3.707 C 22.946 3.596 23.131 3.41 23.205 3.225 C 23.316 3.04 23.353 2.854 23.353 2.669 C 23.353 2.595 23.353 2.558 23.316 2.484 C 23.094 2.595 22.909 2.78 22.797 3.003 C 22.76 3.114 22.723 3.188 22.686 3.299 L 22.686 3.299 Z M 22.575 4.263 C 22.575 4.263 22.612 4.263 22.575 4.263 C 22.872 4.189 23.131 4.189 23.391 4.226 C 23.539 4.152 23.687 4.04 23.798 3.892 C 23.576 3.818 23.316 3.781 23.094 3.855 C 22.909 3.892 22.76 3.966 22.649 4.115 C 22.612 4.152 22.612 4.189 22.575 4.263 L 22.575 4.263 Z M 21.982 4.041 C 21.982 4.078 21.982 4.078 21.982 4.115 C 22.056 4.226 22.093 4.374 22.093 4.485 C 22.278 4.3 22.39 4.115 22.464 3.892 C 22.501 3.818 22.501 3.707 22.501 3.633 C 22.501 3.484 22.464 3.299 22.39 3.151 C 22.204 3.336 22.056 3.522 21.982 3.781 C 22.019 3.855 21.982 3.929 21.982 4.04 L 21.982 4.041 Z M 21.463 4.708 C 21.463 4.819 21.5 4.93 21.537 5.041 C 21.611 5.153 21.685 5.264 21.722 5.375 C 21.834 5.19 21.945 4.967 21.945 4.708 C 21.945 4.708 21.945 4.708 21.945 4.708 C 21.945 4.485 21.834 4.226 21.722 4.003 C 21.574 4.226 21.463 4.448 21.463 4.708 C 21.463 4.708 21.463 4.708 21.463 4.708 L 21.463 4.708 Z M 21.092 5.486 C 21.092 5.597 21.092 5.672 21.129 5.746 C 21.166 5.857 21.203 5.968 21.278 6.079 C 21.389 6.153 21.463 6.228 21.537 6.339 C 21.574 6.191 21.611 6.042 21.611 5.931 C 21.611 5.82 21.611 5.746 21.574 5.634 C 21.5 5.412 21.352 5.19 21.166 5.004 C 21.129 5.153 21.092 5.338 21.092 5.486 L 21.092 5.486 Z M 20.907 6.265 C 20.907 6.45 20.944 6.672 21.055 6.821 C 21.092 6.932 21.166 7.006 21.278 7.08 C 21.389 7.117 21.5 7.191 21.611 7.266 C 21.611 7.228 21.611 7.154 21.611 7.117 C 21.611 6.932 21.574 6.747 21.463 6.561 C 21.352 6.339 21.166 6.153 20.907 6.042 C 20.907 6.153 20.907 6.228 20.907 6.265 Z M 11.899 9.193 C 12.159 9.008 12.492 8.934 12.9 8.934 C 13.345 8.934 13.79 9.008 14.272 9.156 C 14.753 9.267 15.309 9.416 15.828 9.378 C 15.828 9.119 15.828 3.929 15.828 2.966 C 15.828 2.891 15.828 2.854 15.828 2.817 C 15.272 2.854 14.716 2.706 14.197 2.595 C 13.753 2.484 13.308 2.372 12.937 2.409 C 12.381 2.409 12.084 2.595 11.899 2.743 L 11.899 2.966 L 11.899 9.193 Z M 7.71 9.341 C 8.229 9.378 8.748 9.267 9.267 9.119 C 9.749 9.008 10.194 8.897 10.639 8.897 C 11.047 8.897 11.38 9.008 11.64 9.156 L 11.64 2.966 L 11.64 2.743 C 11.454 2.558 11.158 2.409 10.602 2.409 C 10.194 2.409 9.786 2.484 9.341 2.595 C 8.822 2.743 8.303 2.854 7.71 2.817 C 7.71 2.854 7.71 2.891 7.71 2.966 C 7.71 3.892 7.71 9.119 7.71 9.341 L 7.71 9.341 Z M 6.709 10.379 C 6.709 10.379 11.047 10.379 11.195 10.379 C 11.306 10.565 11.491 10.713 11.751 10.713 C 12.01 10.713 12.233 10.565 12.307 10.379 C 12.455 10.379 16.792 10.379 16.792 10.379 L 16.792 2.966 L 16.644 2.966 L 16.236 2.966 L 16.273 3.114 C 16.273 3.114 16.273 3.151 16.273 3.151 L 16.273 9.86 C 15.94 9.86 12.307 9.86 12.122 9.86 C 12.047 9.972 11.973 10.009 11.751 10.009 C 11.566 10.009 11.491 9.972 11.417 9.86 C 11.232 9.86 7.896 9.86 7.228 9.86 L 7.228 3.151 C 7.228 3.151 7.228 3.114 7.228 3.114 L 7.266 2.966 L 6.71 2.966 L 6.709 10.379 Z M 8.341 25.244 L 18.905 15.754 L 29.507 25.281 C 30.211 23.947 30.693 22.649 31.101 21.426 L 18.905 10.453 L 6.747 21.389 C 7.117 22.612 7.636 23.909 8.341 25.244 Z M 10.602 7.303 C 10.861 7.303 11.084 7.34 11.232 7.414 L 11.232 7.08 C 11.047 7.006 10.824 7.006 10.602 6.969 C 10.157 6.969 9.712 7.08 9.23 7.191 C 8.859 7.303 8.489 7.377 8.081 7.414 L 8.081 7.71 C 8.489 7.673 8.897 7.562 9.304 7.488 C 9.786 7.414 10.194 7.303 10.602 7.303 Z M 10.602 8.081 C 10.861 8.081 11.084 8.118 11.232 8.192 L 11.232 7.859 C 11.047 7.785 10.824 7.747 10.602 7.747 C 10.157 7.747 9.712 7.859 9.23 7.97 C 8.859 8.081 8.489 8.155 8.081 8.192 L 8.081 8.489 C 8.489 8.452 8.897 8.341 9.304 8.266 C 9.786 8.155 10.194 8.044 10.602 8.081 Z M 10.602 3.522 C 10.861 3.522 11.084 3.596 11.232 3.633 L 11.232 3.299 C 11.047 3.225 10.824 3.225 10.602 3.188 C 10.157 3.188 9.712 3.299 9.23 3.41 C 8.859 3.522 8.489 3.596 8.081 3.633 L 8.081 3.929 C 8.489 3.892 8.897 3.818 9.304 3.707 C 9.786 3.596 10.194 3.522 10.602 3.522 L 10.602 3.522 Z M 14.197 5.264 C 14.568 5.375 14.976 5.449 15.421 5.486 L 15.421 5.19 C 15.05 5.153 14.642 5.078 14.272 4.967 C 13.79 4.856 13.345 4.745 12.9 4.745 C 12.678 4.745 12.455 4.782 12.27 4.856 L 12.27 5.19 C 12.418 5.116 12.641 5.078 12.9 5.078 C 13.308 5.004 13.753 5.116 14.197 5.264 L 14.197 5.264 Z M 14.197 3.744 C 14.568 3.855 14.976 3.929 15.421 3.966 L 15.421 3.67 C 15.05 3.633 14.642 3.559 14.272 3.447 C 13.79 3.336 13.345 3.225 12.9 3.225 C 12.678 3.225 12.455 3.262 12.27 3.336 L 12.27 3.67 C 12.418 3.596 12.641 3.559 12.9 3.559 C 13.308 3.522 13.753 3.596 14.197 3.744 L 14.197 3.744 Z M 14.197 6.747 C 14.568 6.821 15.013 6.932 15.421 6.969 L 15.421 6.672 C 15.013 6.635 14.642 6.561 14.272 6.45 C 13.79 6.339 13.345 6.228 12.937 6.228 C 12.715 6.228 12.492 6.265 12.307 6.302 L 12.307 6.635 C 12.455 6.561 12.678 6.524 12.937 6.524 C 13.308 6.524 13.753 6.635 14.197 6.747 L 14.197 6.747 Z M 14.197 4.485 C 14.568 4.597 14.976 4.671 15.421 4.708 L 15.421 4.411 C 15.05 4.374 14.642 4.3 14.272 4.189 C 13.79 4.078 13.345 3.966 12.9 3.966 C 12.678 3.966 12.455 4.003 12.27 4.078 L 12.27 4.411 C 12.418 4.337 12.641 4.3 12.9 4.3 C 13.308 4.263 13.753 4.374 14.197 4.485 L 14.197 4.485 Z M 14.197 7.525 C 14.568 7.636 14.976 7.71 15.421 7.747 L 15.421 7.451 C 15.05 7.414 14.642 7.303 14.272 7.228 C 13.79 7.117 13.345 7.006 12.9 7.006 C 12.678 7.006 12.455 7.043 12.27 7.117 L 12.27 7.451 C 12.418 7.377 12.641 7.34 12.9 7.34 C 13.308 7.303 13.753 7.414 14.197 7.525 Z M 14.197 8.266 C 14.568 8.378 14.976 8.452 15.421 8.489 L 15.421 8.192 C 15.05 8.155 14.642 8.081 14.272 7.97 C 13.79 7.859 13.345 7.747 12.9 7.747 C 12.678 7.747 12.455 7.785 12.27 7.859 L 12.27 8.192 C 12.418 8.118 12.641 8.081 12.9 8.081 C 13.308 8.044 13.753 8.155 14.197 8.266 Z M 37.847 24.021 L 37.773 24.206 C 37.069 26.541 35.883 28.877 35.03 30.397 L 34.845 30.693 L 33.622 29.581 C 33.584 29.655 33.51 29.766 33.473 29.841 C 30.36 34.808 25.985 38.403 20.759 40.331 L 18.905 40.998 L 17.052 40.331 C 11.862 38.441 7.451 34.808 4.374 29.841 C 4.337 29.766 4.3 29.655 4.226 29.581 L 2.966 30.693 L 2.78 30.359 C 1.928 28.803 0.778 26.467 0.037 24.169 L 0 24.021 L 3.003 21.315 L 3.373 20.981 L 3.522 21.426 C 3.67 21.982 3.855 22.501 4.041 23.02 L 4.893 22.241 L 5.227 21.945 L 5.375 22.39 C 6.005 24.28 6.858 26.059 7.859 27.653 C 10.491 31.842 14.16 34.882 18.497 36.476 C 18.497 36.476 18.794 36.587 18.942 36.624 C 19.091 36.587 19.387 36.476 19.387 36.476 C 23.724 34.882 27.431 31.842 30.026 27.653 C 31.027 26.059 31.879 24.28 32.509 22.39 L 32.658 21.945 L 33.844 23.02 C 34.029 22.501 34.215 21.982 34.363 21.426 L 34.511 20.981 L 37.847 24.021 Z M 2.484 28.469 L 1.928 24.947 L 3.559 23.465 C 3.373 23.02 3.225 22.538 3.077 22.056 C 2.595 22.501 0.927 23.984 0.704 24.206 C 1.186 25.689 1.816 27.172 2.484 28.469 Z M 3.929 29.062 C 3.559 28.432 3.188 27.765 2.891 27.097 L 3.299 29.655 C 3.41 29.507 3.67 29.284 3.929 29.062 L 3.929 29.062 Z M 34.956 27.097 C 34.659 27.765 34.289 28.432 33.918 29.062 C 33.918 29.062 33.918 29.062 33.918 29.062 C 34.178 29.284 34.4 29.507 34.548 29.655 L 34.956 27.097 Z M 35.178 25.059 C 34.919 24.836 33.325 23.391 32.88 22.983 C 32.25 24.762 31.472 26.467 30.508 27.987 C 27.839 32.287 24.058 35.401 19.572 37.069 L 18.905 37.291 C 18.905 37.291 18.275 37.069 18.275 37.069 C 13.79 35.438 10.046 32.287 7.34 27.987 C 6.376 26.467 5.597 24.762 4.967 22.983 C 4.485 23.391 2.928 24.836 2.669 25.059 C 3.262 26.616 4.041 28.135 4.893 29.507 C 7.933 34.363 12.233 37.884 17.311 39.738 C 17.311 39.738 18.794 40.257 18.942 40.331 C 19.128 40.257 20.61 39.738 20.61 39.738 C 25.689 37.884 29.989 34.326 33.028 29.507 C 33.807 28.172 34.585 26.653 35.178 25.059 Z M 37.143 24.169 C 36.921 23.947 35.253 22.464 34.771 22.019 C 34.622 22.501 34.474 22.983 34.289 23.428 L 35.92 24.91 L 35.364 28.469 C 35.994 27.172 36.661 25.689 37.143 24.169 L 37.143 24.169 Z M 5.19 28.691 L 5.227 28.84 L 5.116 28.914 C 5.041 28.803 5.004 28.691 4.93 28.543 C 4.856 28.432 4.782 28.321 4.708 28.172 L 4.819 28.135 L 4.93 28.246 C 5.041 28.135 5.227 27.987 5.301 27.839 L 5.041 27.357 L 4.522 27.468 L 4.56 27.616 L 4.485 27.653 C 4.448 27.542 4.374 27.468 4.337 27.357 C 4.3 27.283 4.263 27.209 4.189 27.097 L 4.3 27.06 L 4.411 27.171 C 4.782 27.171 5.56 27.023 6.042 26.949 C 6.116 27.06 6.228 27.134 6.302 27.209 L 6.339 27.357 L 5.857 27.95 C 5.598 28.209 5.301 28.58 5.19 28.691 L 5.19 28.691 Z M 5.486 27.691 L 5.931 27.209 L 5.264 27.357 L 5.486 27.691 Z M 8.192 30.434 L 8.266 30.36 C 8.192 30.285 8.155 30.211 8.081 30.1 C 8.007 30.026 7.97 29.915 7.896 29.841 L 7.784 29.915 L 7.859 30.063 C 7.599 30.248 7.006 30.73 7.006 30.73 C 7.154 30.285 7.34 29.766 7.525 29.322 C 7.451 29.247 7.414 29.173 7.34 29.099 C 7.302 29.025 7.228 28.951 7.191 28.877 L 7.117 28.951 L 7.191 29.099 C 7.08 29.21 6.969 29.284 6.821 29.396 L 6.413 29.692 C 6.265 29.803 6.153 29.878 6.005 29.952 L 5.894 29.84 L 5.82 29.915 C 5.894 29.989 5.931 30.063 6.005 30.174 C 6.079 30.248 6.116 30.359 6.19 30.434 L 6.265 30.359 L 6.153 30.174 C 6.413 29.989 6.746 29.729 7.043 29.507 C 6.858 29.952 6.709 30.434 6.524 30.953 C 6.561 30.99 6.598 31.064 6.635 31.101 C 6.672 31.138 6.709 31.212 6.746 31.249 C 6.895 31.138 7.043 30.99 7.265 30.841 L 7.673 30.545 C 7.821 30.434 7.97 30.359 8.081 30.285 L 8.192 30.434 Z M 8.341 31.805 C 7.933 32.176 7.97 32.732 8.303 33.066 C 8.526 33.288 8.748 33.436 9.156 33.473 L 9.193 33.251 C 8.971 33.214 8.785 33.14 8.674 32.991 C 8.415 32.732 8.415 32.361 8.711 32.065 C 9.008 31.768 9.341 31.879 9.527 32.102 C 9.638 32.213 9.712 32.361 9.712 32.51 L 9.638 32.658 L 9.712 32.769 C 9.823 32.695 9.972 32.584 10.083 32.547 C 10.009 32.324 9.897 32.176 9.749 31.991 C 9.341 31.509 8.748 31.435 8.341 31.805 L 8.341 31.805 Z M 11.936 35.216 C 11.603 35.623 11.084 35.66 10.565 35.253 C 10.083 34.845 10.009 34.363 10.379 33.881 C 10.713 33.473 11.269 33.436 11.751 33.844 C 12.233 34.252 12.307 34.771 11.936 35.216 Z M 11.566 34.066 C 11.306 33.844 10.972 33.955 10.713 34.215 C 10.453 34.511 10.453 34.845 10.713 35.067 C 10.972 35.29 11.306 35.178 11.566 34.919 C 11.788 34.622 11.825 34.252 11.566 34.066 L 11.566 34.066 Z M 14.531 36.439 C 14.42 36.661 14.16 36.698 13.901 36.587 C 13.938 36.772 14.012 37.403 14.049 37.514 L 14.086 37.588 L 14.012 37.699 C 13.864 37.588 13.679 37.514 13.53 37.44 C 13.53 37.143 13.493 36.698 13.456 36.439 L 13.345 36.365 L 13.271 36.513 C 13.16 36.661 13.085 36.809 13.048 36.921 L 13.16 37.032 L 13.086 37.143 C 12.974 37.069 12.863 36.995 12.752 36.921 C 12.641 36.847 12.529 36.772 12.381 36.698 L 12.455 36.587 L 12.604 36.661 C 12.715 36.55 12.789 36.402 12.9 36.253 L 13.16 35.809 C 13.271 35.66 13.345 35.512 13.419 35.401 L 13.308 35.29 L 13.382 35.178 C 13.456 35.253 13.567 35.29 13.641 35.364 C 13.753 35.438 13.864 35.475 13.975 35.549 C 14.086 35.623 14.198 35.66 14.309 35.734 C 14.679 35.957 14.679 36.216 14.531 36.439 L 14.531 36.439 Z M 13.975 35.809 C 13.864 35.735 13.827 35.735 13.753 35.697 C 13.715 35.772 13.641 35.883 13.567 35.994 L 13.493 36.105 C 13.53 36.142 13.567 36.179 13.604 36.216 C 13.827 36.365 14.012 36.365 14.123 36.179 C 14.197 36.031 14.16 35.92 13.975 35.809 L 13.975 35.809 Z M 16.792 37.81 C 16.755 38.144 16.718 38.626 16.718 38.811 L 16.829 38.885 L 16.792 38.997 C 16.681 38.922 16.533 38.885 16.422 38.811 C 16.31 38.737 16.162 38.7 16.051 38.663 L 16.088 38.552 L 16.236 38.589 C 16.273 38.441 16.31 38.218 16.31 38.07 L 15.791 37.847 L 15.458 38.255 L 15.569 38.329 L 15.532 38.44 C 15.421 38.403 15.309 38.329 15.235 38.292 C 15.161 38.255 15.05 38.218 14.976 38.181 L 15.013 38.07 L 15.161 38.107 C 15.458 37.884 15.977 37.328 16.347 36.921 C 16.496 36.958 16.607 36.958 16.718 36.995 L 16.866 37.106 L 16.792 37.81 Z M 16.422 37.143 L 15.977 37.662 L 16.347 37.847 L 16.422 37.143 Z M 21.871 38.441 C 21.797 38.292 21.722 38.181 21.648 37.996 L 21.463 37.551 C 21.389 37.366 21.315 37.254 21.278 37.106 L 21.426 37.032 L 21.389 36.921 C 21.278 36.995 21.129 37.032 21.018 37.106 C 20.907 37.143 20.759 37.217 20.647 37.254 L 20.684 37.366 L 20.833 37.328 C 20.907 37.477 20.981 37.588 21.055 37.773 L 21.241 38.218 C 21.315 38.403 21.352 38.515 21.426 38.663 L 21.278 38.737 L 21.315 38.848 C 21.426 38.774 21.574 38.737 21.685 38.663 C 21.797 38.626 21.945 38.552 22.056 38.515 L 22.019 38.403 L 21.871 38.441 Z M 25.059 36.735 C 24.985 36.624 24.873 36.476 24.799 36.328 L 24.54 35.883 C 24.428 35.734 24.354 35.586 24.317 35.475 L 24.428 35.364 L 24.354 35.253 C 24.243 35.327 24.132 35.401 24.058 35.438 C 23.947 35.512 23.835 35.549 23.724 35.623 C 23.798 35.846 23.947 36.735 23.984 36.921 C 23.798 36.772 23.131 36.253 22.983 36.068 C 22.872 36.142 22.76 36.216 22.686 36.253 C 22.575 36.328 22.464 36.365 22.353 36.439 L 22.427 36.55 L 22.575 36.513 L 22.686 36.735 C 22.797 36.958 23.205 37.625 23.279 37.81 L 23.168 37.922 L 23.242 38.033 C 23.316 37.996 23.428 37.922 23.502 37.884 C 23.576 37.847 23.687 37.773 23.761 37.736 L 23.687 37.625 L 23.539 37.699 C 23.465 37.588 23.353 37.44 23.279 37.291 L 23.131 37.032 C 23.02 36.809 22.909 36.661 22.872 36.587 C 23.502 37.143 23.872 37.403 24.021 37.551 L 24.243 37.403 L 23.947 35.92 C 23.984 35.994 24.095 36.142 24.206 36.365 L 24.354 36.624 C 24.466 36.772 24.503 36.921 24.577 37.069 L 24.466 37.18 L 24.503 37.291 C 24.614 37.217 24.725 37.143 24.836 37.069 C 24.947 36.995 25.096 36.921 25.207 36.846 L 25.17 36.735 L 25.059 36.735 Z M 26.764 35.438 C 26.653 35.327 26.541 35.216 26.43 35.067 L 26.208 34.771 C 26.097 34.659 25.985 34.511 25.911 34.363 C 25.948 34.326 25.985 34.252 26.059 34.215 C 26.245 34.066 26.393 34.103 26.504 34.215 C 26.616 34.363 26.653 34.548 26.467 34.659 C 26.43 34.697 26.393 34.734 26.356 34.734 L 26.43 34.956 C 26.504 34.919 26.578 34.845 26.653 34.808 C 27.023 34.511 27.023 34.14 26.838 33.881 C 26.653 33.659 26.356 33.622 26.059 33.881 C 25.985 33.955 25.911 34.029 25.8 34.103 C 25.689 34.215 25.578 34.289 25.503 34.363 C 25.429 34.437 25.318 34.511 25.207 34.585 L 25.281 34.659 L 25.429 34.585 C 25.54 34.697 25.652 34.808 25.763 34.956 L 26.059 35.364 C 26.171 35.512 26.282 35.623 26.356 35.734 L 26.245 35.846 L 26.319 35.92 C 26.43 35.846 26.541 35.734 26.652 35.66 C 26.764 35.586 26.875 35.512 27.023 35.364 L 26.949 35.29 L 26.764 35.438 Z M 29.692 32.769 L 29.766 32.843 C 29.655 32.917 29.581 33.028 29.47 33.14 C 29.359 33.251 29.284 33.362 29.173 33.436 L 29.099 33.362 L 29.173 33.251 C 29.062 33.177 28.84 33.066 28.691 32.991 L 28.284 33.399 L 28.543 33.844 L 28.654 33.77 L 28.728 33.844 C 28.654 33.918 28.58 33.992 28.506 34.066 C 28.432 34.14 28.358 34.215 28.321 34.289 L 28.246 34.215 L 28.321 34.103 C 28.209 33.77 27.839 33.066 27.616 32.584 C 27.69 32.472 27.765 32.361 27.802 32.25 L 27.95 32.176 L 28.617 32.472 C 28.914 32.621 29.359 32.806 29.507 32.843 L 29.692 32.769 Z M 28.543 32.88 L 27.913 32.584 L 28.247 33.177 L 28.543 32.88 Z M 31.583 30.359 L 31.657 30.434 C 31.546 30.582 31.434 30.73 31.36 30.878 C 31.027 30.878 30.582 30.841 30.322 30.841 L 30.248 30.953 L 30.359 31.064 C 30.508 31.175 30.619 31.249 30.767 31.323 L 30.878 31.212 L 30.99 31.286 C 30.916 31.397 30.804 31.509 30.73 31.62 C 30.656 31.731 30.582 31.842 30.471 31.953 L 30.359 31.879 L 30.434 31.731 C 30.322 31.62 30.211 31.546 30.063 31.434 L 29.655 31.138 C 29.507 31.027 29.396 30.953 29.247 30.841 L 29.136 30.953 L 29.025 30.878 C 29.099 30.804 29.173 30.73 29.21 30.619 C 29.284 30.508 29.359 30.434 29.433 30.322 C 29.507 30.211 29.581 30.137 29.655 30.026 C 29.952 29.618 30.211 29.655 30.396 29.803 C 30.582 29.952 30.619 30.211 30.508 30.434 C 30.693 30.434 31.323 30.396 31.434 30.396 L 31.583 30.359 Z M 30.211 30.211 C 30.1 30.1 29.952 30.137 29.841 30.322 C 29.766 30.397 29.729 30.471 29.692 30.508 C 29.766 30.545 29.841 30.656 29.989 30.73 L 30.1 30.804 C 30.137 30.767 30.174 30.73 30.211 30.693 C 30.359 30.508 30.359 30.359 30.211 30.211 L 30.211 30.211 Z M 32.843 28.654 C 32.509 29.21 32.028 29.359 31.546 29.062 C 31.101 28.803 30.953 28.284 31.286 27.728 C 31.62 27.172 32.065 27.023 32.584 27.32 C 33.028 27.542 33.177 28.098 32.843 28.654 L 32.843 28.654 Z M 32.324 27.728 C 31.991 27.542 31.657 27.579 31.472 27.839 C 31.286 28.135 31.434 28.432 31.768 28.654 C 32.102 28.84 32.435 28.803 32.621 28.543 C 32.806 28.247 32.658 27.913 32.324 27.728 Z M 18.905 38.218 C 18.72 38.218 18.534 38.403 18.534 38.626 C 18.534 38.848 18.72 39.034 18.905 39.034 C 19.128 39.034 19.313 38.848 19.313 38.626 C 19.313 38.403 19.128 38.218 18.905 38.218 Z M 4.448 25.874 C 4.671 25.874 4.856 25.689 4.856 25.503 C 4.856 25.281 4.671 25.096 4.448 25.096 C 4.226 25.096 4.078 25.281 4.078 25.503 C 4.078 25.689 4.263 25.874 4.448 25.874 Z M 33.436 25.874 C 33.659 25.874 33.844 25.689 33.844 25.503 C 33.844 25.281 33.659 25.096 33.436 25.096 C 33.251 25.096 33.066 25.281 33.066 25.503 C 33.028 25.689 33.214 25.874 33.436 25.874 Z"></path>
</svg>